# AST/ASF file generated using VICON BodyLanguage
# -----------------------------------------------
:version 1.10
:name VICON
:units
  mass 1.0
  length 0.45
  angle deg
:documentation
   .ast/.asf automatically generated from VICON data using
   VICON BodyBuilder and BodyLanguage model FoxedUp or BRILLIANT.MOD
:root
   order TX TY TZ RX RY RZ
   axis XYZ
   position 0 0 0  
   orientation 0 0 0 
:bonedata
  begin
     id 1 
     name lhipjoint
     direction 0.682418 -0.694059 0.22932 
     length 2.25561 
     axis 0 0 0  XYZ
  end
  begin
     id 2 
     name lfemur
     direction 0.34202 -0.939693 0  
     length 6.96448  
     axis 0 0 20  XYZ
    dof rx ry rz
    limits (-160.0 20.0)
           (-70.0 70.0)
           (-60.0 70.0)
  end
  begin
     id 3 
     name ltibia
     direction 0.34202 -0.939693 0   
     length 6.88553   
     axis 0 0 20   XYZ
    dof rx
    limits (-10.0 170.0)
  end
  begin
     id 4 
     name lfoot
     direction 0.0723587 -0.198804 0.977364   
     length 1.88518   
     axis -90 7.62852e-016 20   XYZ
    dof rx rz
    limits (-45.0 90.0)
           (-70.0 20.0)
  end
  begin
     id 5 
     name ltoes
     direction 1.53558e-011 -4.21962e-011 1   
     length 0.952124   
     axis -90 7.62852e-016 20   XYZ
    dof rx
    limits (-90.0 20.0)
  end
  begin
     id 6 
     name rhipjoint
     direction -0.657603 -0.71533 0.236348   
     length 2.18854  
     axis 0 0 0  XYZ 
  end
  begin
     id 7 
     name rfemur
     direction -0.34202 -0.939693 0   
     length 6.86686   
     axis 0 0 -20   XYZ
    dof rx ry rz
    limits (-160.0 20.0)
           (-70.0 70.0)
           (-70.0 60.0)
  end
  begin
     id 8 
     name rtibia
     direction -0.34202 -0.939693 0   
     length 6.59503   
     axis 0 0 -20   XYZ
    dof rx
    limits (-10.0 170.0)
 end
 begin
     id 9 
     name rfoot
     direction -0.101977 -0.280179 0.954516   
     length 1.93723  
     axis -90 -7.62852e-016 -20   XYZ
    dof rx rz
    limits (-45.0 90.0)
           (-20.0 70.0)
  end
  begin
     id 10 
     name rtoes
     direction -1.53564e-011 -4.21897e-011 1   
     length 0.970315   
     axis -90 -7.62852e-016 -20   XYZ
    dof rx
    limits (-90.0 20.0)
  end
  begin
     id 11 
     name lowerback
     direction -0.0339559 0.999421 -0.00235966   
     length 1.88543   
     axis 0 0 0   XYZ
    dof rx ry rz
    limits (-20.0 45.0)
           (-30.0 30.0)
           (-30.0 30.0)
  end
  begin
     id 12 
     name upperback
     direction 0.00401003 0.999739 0.0224689   
     length 1.8856   
     axis 0 0 0   XYZ
    dof rx ry rz
    limits (-20.0 45.0)
           (-30.0 30.0)
           (-30.0 30.0)
  end
  begin
     id 13 
     name thorax
     direction 0.0198619 0.999546 0.0226536   
     length 1.88352   
     axis 0 0 0   XYZ
    dof rx ry rz
    limits (-20.0 45.0)
           (-30.0 30.0)
           (-30.0 30.0)
  end
  begin
     id 14 
     name lowerneck
     direction -0.0461848 0.998632 0.0245198   
     length 1.34895   
     axis 0 0 0   XYZ
    dof rx ry rz
    limits (-20.0 45.0)
           (-30.0 30.0)
           (-30.0 30.0)
  end
  begin
     id 15 
     name upperneck
     direction -0.0180627 0.994724 -0.100984   
     length 1.35214   
     axis 0 0 0   XYZ
    dof rx ry rz
    limits (-20.0 45.0)
           (-30.0 30.0)
           (-30.0 30.0)
  end
  begin
     id 16
     name head
     direction -0.00374772 0.999293 -0.037403  
     length 1.3568  
     axis 0 0 0   XYZ
    dof rx ry rz
    limits (-20.0 45.0)
           (-30.0 30.0)
           (-30.0 30.0)
  end
  begin
     id 17 
     name lclavicle
     direction 0.971773 0.191119 0.138311  
     length 2.84954  
     axis 0 0 0   XYZ
    dof ry rz
    limits (-20.0 10.0)
           (0.0 20.0)
  end
  begin
     id 18 
     name lhumerus
     direction 1 -4.4897e-011 -2.43761e-027   
     length 4.40919   
     axis 180 -30 -90   XYZ
    dof rx ry rz
    limits (-60.0 90.0)
           (-90.0 90.0)
           (-90.0 90.0)
  end
  begin
     id 19
     name lradius
     direction 1 -4.4896e-011 -9.1621e-027   
     length 3.03857   
     axis 180 -30 -90   XYZ
    dof rx
    limits (-10.0 170.0)
  end
  begin
     id 20
     name lwrist
     direction 1 -4.4896e-011 -1.41363e-026   
     length 1.51928   
     axis 1.07133e-014 90 90   XYZ
    dof ry
    limits (-180.0 0.0)
 end
  begin
     id 21 
     name lhand
     direction 1 -4.48978e-011 -2.82725e-026   
     length 0.523208   
     axis 1.80403e-014 90 90   XYZ
    dof rx rz
    limits (-90.0 90.0)
           (-45.0 45.0)
  end
  begin
     id 22 
     name lfingers
     direction 1 -4.48977e-011 -5.6545e-026   
     length 0.421824   
     axis 3.60806e-014 90 90   XYZ
    dof rx
    limits (0.0 90.0)
  end
  begin
     id 23
     name lthumb
     direction 0.707107 -6.34962e-011 0.707107   
     length 0.605657   
     axis -90 45 2.85299e-015   XYZ
    dof rx rz
    limits (-45.0 45.0)
           (-45.0 45.0)
  end
  begin
     id 24 
     name rclavicle
     direction -0.957247 0.24311 0.156766   
     length 3.12406  
     axis 0 0 0   XYZ 
    dof ry rz
    limits (-10.0 20.0)
           (-20.0 0.0)
  end
  begin
     id 25 
     name rhumerus
     direction -1 -4.48964e-011 -1.70632e-027  
     length 4.61969   
     axis 180 30 90   XYZ
    dof rx ry rz
    limits (-90.0 60.0)
           (-90.0 90.0)
           (-90.0 90.0)
  end
  begin
     id 26 
     name rradius
     direction -1 -4.48966e-011 -6.60395e-027   
     length 3.09382   
     axis 180 30 90   XYZ
    dof rx
    limits (-10.0 170.0)
  end
  begin
     id 27 
     name rwrist
     direction -1 -4.48963e-011 -1.41363e-026   
     length 1.54691   
     axis 1.07133e-014 -90 -90   XYZ
    dof ry
    limits (-180.0 0.0)
  end
  begin
     id 28
     name rhand
     direction -1 -4.49013e-011 -2.82725e-026   
     length 0.500896   
     axis 1.80403e-014 -90 -90   XYZ
    dof rx rz
    limits (-90.0 90.0)
           (-45.0 45.0)
  end
  begin
     id 29
     name rfingers
     direction -1 -4.48902e-011 -5.6545e-026   
     length 0.403835   
     axis 3.60806e-014 -90 -90   XYZ
    dof rx
    limits (0.0 90.0)
  end
  begin
     id 30
     name rthumb
     direction -0.707107 -6.34953e-011 0.707107   
     length 0.579829   
     axis -90 -45 -2.85299e-015   XYZ
    dof rx rz
    limits (-45.0 45.0)
           (-45.0 45.0)
  end
:hierarchy
  begin
    root lhipjoint rhipjoint lowerback
    lhipjoint lfemur
    lfemur ltibia
    ltibia lfoot
    lfoot ltoes
    rhipjoint rfemur
    rfemur rtibia
    rtibia rfoot
    rfoot rtoes
    lowerback upperback
    upperback thorax
    thorax lowerneck lclavicle rclavicle
    lowerneck upperneck
    upperneck head
    lclavicle lhumerus
    lhumerus lradius
    lradius lwrist
    lwrist lhand lthumb
    lhand lfingers
    rclavicle rhumerus
    rhumerus rradius
    rradius rwrist
    rwrist rhand rthumb
    rhand rfingers
  end

#!OML:ASF E:\madness\Project 1\Capture day 1\Session 1\Female1.ASF
:FULLY-SPECIFIED
:DEGREES
726
root 7.49271 16.4382 -1.74297 195.6 -77.3845 -191.115
lowerback -7.74744 0.479383 -3.80254
upperback -4.54218 0.717131 -0.255847
thorax -0.404572 0.357384 1.92205
lowerneck -2.33617 5.78175 3.53457
upperneck 31.1131 7.00967 -2.28387
head 10.5497 2.81485 -0.868992
rclavicle 6.52262e-015 2.03754e-015
rhumerus -38.9562 12.7314 -101.501
rradius 94.3604
rwrist -43.0823
rhand -14.4355 -60.7506
rfingers 7.12502
rthumb 11.7091 450.403
lclavicle 6.52262e-015 2.03754e-015
lhumerus -54.0559 1.10224 90.507
lradius 117.141
lwrist 53.1393
lhand -45.1868 37.7274
lfingers 7.12502
lthumb -17.9634 66.9178
rfemur 1.98445 14.5328 20.9677
rtibia -3.18055e-015
rfoot -7.47193 -15.4243
rtoes 24.092
lfemur -6.53832 -8.80063 -15.3988
ltibia 18.7195
lfoot -5.59556 29.4232
ltoes 13.5234
727
root 7.4952 16.4391 -1.73638 195.739 -77.4491 -191.229
lowerback -7.7499 0.405638 -3.79261
upperback -4.53372 0.619289 -0.245352
thorax -0.388388 0.308176 1.92048
lowerneck -2.6656 5.6283 3.15985
upperneck 31.3985 6.76794 -2.08736
head 10.6895 2.66846 -0.750858
rclavicle 2.22763e-014 1.24737e-014
rhumerus -38.9831 12.8702 -101.543
rradius 94.9862
rwrist -43.9246
rhand -14.7746 -60.6331
rfingers 7.12502
rthumb 11.3822 450.304
lclavicle 2.22763e-014 1.24737e-014
lhumerus -53.9955 1.16312 90.5912
lradius 117.597
lwrist 53.3307
lhand -45.31 49.1251
lfingers 7.12502
lthumb -18.0819 78.3046
rfemur 1.95139 14.4637 20.9211
rtibia 1.35174e-014
rfoot -7.52122 -15.4083
rtoes 24.1117
lfemur -6.57545 -8.78842 -15.4388
ltibia 18.6145
lfoot -5.19222 29.4882
ltoes 12.0913
728
root 7.49306 16.4423 -1.73272 195.981 -77.4478 -191.401
lowerback -7.83708 0.338245 -3.8386
upperback -4.54252 0.534836 -0.23501
thorax -0.345205 0.265575 1.95165
lowerneck -2.97375 5.47525 2.82473
upperneck 31.6909 6.54683 -1.98091
head 10.8365 2.52517 -0.670695
rclavicle 1.98785e-016 -2.78299e-015
rhumerus -39.0884 13.0484 -101.643
rradius 95.5654
rwrist -44.5801
rhand -15.0061 -61.3871
rfingers 7.12502
rthumb 11.1589 451.07
lclavicle 1.98785e-016 -2.78299e-015
lhumerus -53.8827 1.19191 90.6436
lradius 118.017
lwrist 53.5555
lhand -46.0282 46.0197
lfingers 7.12502
lthumb -18.7728 75.1338
rfemur 1.41819 14.4795 20.8091
rtibia 0.977567
rfoot -8.24111 -15.2505
rtoes 25.6517
lfemur -6.59456 -8.84981 -15.4876
ltibia 18.5658
lfoot -5.53644 29.5199
ltoes 12.5108
729
root 7.49059 16.4413 -1.7312 196.317 -77.3632 -191.741
lowerback -7.93398 0.330859 -3.97851
upperback -4.49291 0.540871 -0.252861
thorax -0.242795 0.268684 2.01323
lowerneck -3.16212 5.21549 2.71235
upperneck 31.8629 6.23033 -2.17529
head 10.9327 2.33497 -0.751068
rclavicle 2.8302e-014 1.39646e-014
rhumerus -39.1162 13.1113 -101.657
rradius 96.1413
rwrist -45.1291
rhand -14.8796 -61.6817
rfingers 7.12502
rthumb 11.2809 451.358
lclavicle 2.8302e-014 1.39646e-014
lhumerus -53.6444 1.11998 90.7267
lradius 118.374
lwrist 53.7958
lhand -44.2337 54.5476
lfingers 7.12502
lthumb -17.0462 83.8197
rfemur 1.40387 14.5402 20.6958
rtibia 0.988425
rfoot -8.18711 -15.267
rtoes 25.5781
lfemur -6.53686 -8.88836 -15.6075
ltibia 18.5648
lfoot -5.90317 29.5325
ltoes 13.9371
730
root 7.49149 16.4347 -1.72982 196.401 -77.2697 -191.892
lowerback -7.92715 0.348278 -4.07848
upperback -4.44818 0.573408 -0.276284
thorax -0.203627 0.285825 2.04771
lowerneck -3.16572 4.91537 2.66452
upperneck 31.8439 5.8472 -2.35481
head 10.9178 2.13156 -0.848487
rclavicle -9.9206e-015 -4.47266e-016
rhumerus -39.1537 13.1019 -101.636
rradius 96.7068
rwrist -45.8162
rhand -14.6864 -60.6508
rfingers 7.12502
rthumb 11.4672 450.317
lclavicle -9.9206e-015 -4.47266e-016
lhumerus -53.4858 1.02797 90.8762
lradius 118.718
lwrist 53.839
lhand -45.8001 44.0058
lfingers 7.12502
lthumb -18.5534 73.141
rfemur 1.47969 14.6205 20.6975
rtibia 0.848068
rfoot -7.66443 -15.4923
rtoes 22.5538
lfemur -6.4612 -8.89193 -15.6895
ltibia 18.588
lfoot -6.16164 29.5872
ltoes 15.11
731
root 7.495 16.4326 -1.72855 196.275 -77.2294 -191.762
lowerback -7.93866 0.298494 -4.14516
upperback -4.44003 0.512564 -0.233997
thorax -0.18638 0.256748 2.12441
lowerneck -3.10984 4.68902 2.4965
upperneck 31.8179 5.54574 -2.40078
head 10.882 1.96575 -0.869403
rclavicle 1.52381e-014 -9.93923e-017
rhumerus -39.2544 13.2728 -101.678
rradius 97.2159
rwrist -46.4459
rhand -14.766 -59.8706
rfingers 7.12502
rthumb 11.3904 270.459
lclavicle 1.52381e-014 -9.93923e-017
lhumerus -53.4563 1.09362 91.0257
lradius 119.067
lwrist 53.8137
lhand -45.7008 45.0136
lfingers 7.12502
lthumb -18.4579 74.1579
rfemur 1.84223 14.6483 20.7512
rtibia -1.82882e-014
rfoot -6.89136 -15.6171
rtoes 20.6889
lfemur -6.49675 -8.90089 -15.6693
ltibia 18.6475
lfoot -6.37473 29.6154
ltoes 15.4185
732
root 7.50034 16.434 -1.72732 196.131 -77.2156 -191.564
lowerback -7.98882 0.233172 -4.20675
upperback -4.45171 0.43076 -0.184785
thorax -0.166769 0.216837 2.20401
lowerneck -3.10723 4.50582 2.34437
upperneck 31.9018 5.30311 -2.45921
head 10.9029 1.82243 -0.890995
rclavicle -7.53518e-015 -7.15625e-015
rhumerus -39.3279 13.4405 -101.735
rradius 97.6993
rwrist -47.0144
rhand -14.6093 -59.7232
rfingers 7.12502
rthumb 11.5415 270.615
lclavicle -7.53518e-015 -7.15625e-015
lhumerus -53.3791 1.15992 91.0859
lradius 119.44
lwrist 53.9598
lhand -46.0389 42.5608
lfingers 7.12502
lthumb -18.7831 71.6739
rfemur 1.75053 14.6766 20.7725
rtibia -1.27222e-014
rfoot -6.78199 -15.6379
rtoes 20.5895
lfemur -6.60856 -8.85104 -15.6176
ltibia 18.7189
lfoot -6.23333 29.5676
ltoes 14.8738
733
root 7.50383 16.4373 -1.72738 195.664 -77.1481 -191.13
lowerback -7.97734 0.224036 -4.21054
upperback -4.42529 0.42035 -0.141844
thorax -0.145381 0.212069 2.24975
lowerneck -3.25616 4.29702 2.24404
upperneck 32.0626 5.04152 -2.59405
head 10.9874 1.66599 -0.948967
rclavicle 5.53491e-015 -1.60519e-014
rhumerus -39.2854 13.4512 -101.712
rradius 98.1855
rwrist -47.7307
rhand -13.9055 -59.5357
rfingers 7.12502
rthumb 12.2202 270.841
lclavicle 5.53491e-015 -1.60519e-014
lhumerus -53.2514 1.16682 91.1478
lradius 119.837
lwrist 54.0942
lhand -45.1595 53.6449
lfingers 7.12502
lthumb -17.9371 82.8377
rfemur 1.80182 14.7664 20.835
rtibia 7.95139e-016
rfoot -7.03994 -15.531
rtoes 22.4691
lfemur -6.57091 -8.77028 -15.5435
ltibia 18.7653
lfoot -6.37461 29.5803
ltoes 15.4417
734
root 7.50645 16.4412 -1.72762 195.327 -77.1034 -190.789
lowerback -8.03766 0.216806 -4.20889
upperback -4.36878 0.417139 -0.100019
thorax -0.0535991 0.209195 2.29244
lowerneck -3.48943 4.02643 2.18884
upperneck 32.2235 4.73121 -2.87909
head 11.093 1.47612 -1.07426
rclavicle 1.56543e-015 -8.10048e-015
rhumerus -39.136 13.4815 -101.641
rradius 98.6412
rwrist -48.4752
rhand -12.8883 -60.5046
rfingers 7.12502
rthumb 13.2008 450.067
lclavicle 1.56543e-015 -8.10048e-015
lhumerus -53.0726 1.16155 91.2722
lradius 120.16
lwrist 54.1743
lhand -45.7423 38.9373
lfingers 7.12502
lthumb -18.4978 68.0778
rfemur 1.80871 14.8288 20.8735
rtibia 7.15625e-015
rfoot -7.29126 -15.4471
rtoes 23.9826
lfemur -6.57852 -8.79075 -15.4666
ltibia 18.7822
lfoot -6.63183 29.658
ltoes 16.122
735
root 7.5099 16.4385 -1.72537 195.274 -77.0702 -190.673
lowerback -8.18506 0.222797 -4.19226
upperback -4.31833 0.433309 -0.103904
thorax 0.0791008 0.213828 2.28161
lowerneck -3.42415 3.72995 2.03479
upperneck 32.1408 4.37165 -3.06782
head 11.0358 1.27233 -1.15483
rclavicle 2.47238e-014 -2.33572e-015
rhumerus -38.9733 13.5207 -101.561
rradius 99.0497
rwrist -49.2341
rhand -13.7297 -59.4108
rfingers 7.12502
rthumb 12.3897 270.976
lclavicle 2.47238e-014 -2.33572e-015
lhumerus -52.7646 1.03036 91.4179
lradius 120.417
lwrist 54.3803
lhand -46.2778 33.1243
lfingers 7.12502
lthumb -19.0129 62.2151
rfemur 1.69137 14.8722 20.8922
rtibia -3.18055e-015
rfoot -7.0334 -15.5557
rtoes 22.3247
lfemur -6.6608 -8.82058 -15.4328
ltibia 18.7648
lfoot -6.57617 29.7834
ltoes 15.8803
736
root 7.51139 16.434 -1.72273 195.282 -77.0051 -190.717
lowerback -8.21343 0.233352 -4.21261
upperback -4.29894 0.45116 -0.112324
thorax 0.11337 0.222169 2.28604
lowerneck -3.21675 3.47109 1.71102
upperneck 32.057 4.03191 -3.08018
head 10.9426 1.07588 -1.14047
rclavicle -4.60621e-014 -1.3418e-015
rhumerus -38.9302 13.5109 -101.463
rradius 99.509
rwrist -50.219
rhand -13.9585 -60.526
rfingers 7.12502
rthumb 12.1691 450.152
lclavicle -4.60621e-014 -1.3418e-015
lhumerus -52.6376 0.929207 91.5648
lradius 120.775
lwrist 54.6985
lhand -46.5827 31.9936
lfingers 7.12502
lthumb -19.3061 61.0553
rfemur 1.69899 14.934 20.8903
rtibia -5.56597e-015
rfoot -6.81217 -15.6399
rtoes 20.8843
lfemur -6.58491 -8.75478 -15.4829
ltibia 18.7118
lfoot -6.4507 29.8836
ltoes 15.8714
737
root 7.51232 16.4307 -1.72032 195.359 -77 -190.846
lowerback -8.10364 0.213221 -4.26944
upperback -4.39174 0.416981 -0.107131
thorax -0.0419445 0.209183 2.31946
lowerneck -3.03629 3.2381 1.37617
upperneck 32.2225 3.70437 -3.06472
head 10.9537 0.873508 -1.11586
rclavicle 1.18028e-015 4.96962e-016
rhumerus -39.13 13.4337 -101.44
rradius 100.043
rwrist -51.0773
rhand -14.0883 -61.1447
rfingers 7.12502
rthumb 12.0439 450.778
lclavicle 1.18028e-015 4.96962e-016
lhumerus -52.8643 0.919883 91.6603
lradius 121.223
lwrist 54.9936
lhand -46.0139 31.7893
lfingers 7.12502
lthumb -18.759 60.9048
rfemur 1.53878 14.9416 20.853
rtibia 0.442695
rfoot -7.11698 -15.6205
rtoes 21.1548
lfemur -6.4345 -8.71836 -15.5398
ltibia 18.6249
lfoot -6.85971 29.8046
ltoes 16.8617
738
root 7.51461 16.4308 -1.71793 195.292 -77.0547 -190.799
lowerback -7.96537 0.184897 -4.27732
upperback -4.52187 0.364606 -0.106669
thorax -0.249676 0.187333 2.31898
lowerneck -2.8049 3.03266 1.00255
upperneck 32.4236 3.36388 -2.87344
head 10.9659 0.678034 -1.0219
rclavicle 1.37161e-014 -7.10655e-015
rhumerus -39.4284 13.3428 -101.508
rradius 100.538
rwrist -51.5531
rhand -13.8921 -60.7772
rfingers 7.12502
rthumb 12.2331 450.399
lclavicle 1.37161e-014 -7.10655e-015
lhumerus -53.0939 0.849755 91.7776
lradius 121.56
lwrist 54.9565
lhand -45.9562 34.1365
lfingers 7.12502
lthumb -18.7035 63.2574
rfemur 0.745882 14.9342 20.8256
rtibia 2.14201
rfoot -8.25556 -15.4866
rtoes 22.6244
lfemur -6.33521 -8.77092 -15.5204
ltibia 18.5189
lfoot -7.4876 29.7147
ltoes 17.7178
739
root 7.51937 16.4326 -1.71669 195.151 -77.0733 -190.697
lowerback -7.84049 0.17407 -4.29972
upperback -4.58474 0.341918 -0.121019
thorax -0.382392 0.179131 2.3141
lowerneck -2.69754 2.82648 0.857132
upperneck 32.5595 3.03977 -2.80552
head 10.9861 0.509049 -1.00801
rclavicle 1.83068e-014 2.05245e-014
rhumerus -39.5969 13.2824 -101.563
rradius 100.989
rwrist -51.9114
rhand -13.7758 -60.5625
rfingers 7.12502
rthumb 12.3453 450.178
lclavicle 1.83068e-014 2.05245e-014
lhumerus -53.1444 0.740985 91.9144
lradius 121.814
lwrist 54.8366
lhand -46.3264 40.2135
lfingers 7.12502
lthumb -19.0596 69.2996
rfemur 0.404438 14.9415 20.8332
rtibia 2.94514
rfoot -8.84073 -15.3576
rtoes 23.7969
lfemur -6.28443 -8.81712 -15.485
ltibia 18.4088
lfoot -7.40449 29.7415
ltoes 16.9852
